# xmcd
# 
# Track frame offsets:
#     150
#     19552
#     37792
#     53942
#     65177
#     76532
#     85645
#     98367
#     111215
#     127567
#     141375
#     156477
#     177597
#     189420
#     199742
#     208620
# 
# Disc length: 2920
# 
# Revision: 5
# Processed by: cddbd v1.5.2PL0 Copyright (c) Steve Scherf et al.
# Submitted via: fre:ac v1.0.17
# 
DISCID=ca0b6610
DTITLE=Various Artist - Crea Goldies Vol 1
DYEAR=0
DGENRE=Dance Music
TTITLE0=Santana - Oye Como Va
TTITLE1=Hot Chocolate - It Started With A Kiss
TTITLE2=Tavares - Heaven Must Be Missing An Angel
TTITLE3=Nat King Cole - Fascination
TTITLE4=Johnny Ray - Yes Tonight, Josephine
TTITLE5=Elvis Presley - Don't Be Cruel
TTITLE6=Johnny Ray - Just Walking In The Rain
TTITLE7=Georgie Fame and The Blue Flames - Rosetta
TTITLE8=Earth, Wind and Fire - September
TTITLE9=The Casuals - Jesamine
TTITLE10=Harpo - Moviestar
TTITLE11=Peter Sarstedt - Where Do You Go To (My Lovely)
TTITLE12=Gilbert O`Sullivan - What's In A Kiss
TTITLE13=Ricky Nelson - Hello Mary Lou
TTITLE14=Johnny Burnette - You're Sixteen
TTITLE15=Frankie Avalon - Venus
EXTD=
EXTT0=ChaChaCha
EXTT1=Rumba
EXTT2=Hustle
EXTT3=Slow Waltz
EXTT4=Jive
EXTT5=Rock'n'Roll
EXTT6=Blues
EXTT7=Quickstep
EXTT8=ChaChaCha
EXTT9=Rumba
EXTT10=Disco Fox
EXTT11=Vienna Waltz
EXTT12=Slow Fox
EXTT13=Foxtrott
EXTT14=Jive
EXTT15=Rumba
PLAYORDER=
